<svg width="72" height="72" viewBox="0 0 72 72" fill="none" xmlns="http://www.w3.org/2000/svg">
<g clip-path="url(#clip0_38_55)">
<path d="M13.2 60H42H70.8C71.52 60 72 59.5201 72 58.8001V37.2001V15.6001V1.19995C72 0.479953 71.52 0 70.8 0H48H34.7999H13.1999C12.4799 0 12 0.479953 12 1.19995V30V39.6V54V58.8C12 59.52 12.48 60 13.2 60ZM14.4 40.8H26.4C25.7999 47.16 20.7599 52.2 14.4 52.7999V40.8ZM14.4 2.40005H33.6V9.60005H32.4C31.68 9.60005 31.2 10.08 31.2 10.8C31.2 11.52 31.68 12 32.4 12H37.2C37.92 12 38.3999 11.52 38.3999 10.8C38.3999 10.08 37.92 9.60005 37.2 9.60005H36V2.40005H46.8V15.6001C46.8 16.3201 47.28 16.8 48 16.8H52.7999V18C52.7999 18.72 53.2799 19.2 53.9999 19.2C54.7199 19.2 55.1998 18.72 55.1998 18V13.2C55.1998 12.48 54.7199 12.0001 53.9999 12.0001C53.2799 12.0001 52.7999 12.48 52.7999 13.2V14.4H49.1999V2.40005H69.6V14.4H64.8V13.2C64.8 12.48 64.32 12.0001 63.6 12.0001C62.88 12.0001 62.4001 12.48 62.4001 13.2V18C62.4001 18.72 62.88 19.2 63.6 19.2C64.32 19.2 64.8 18.72 64.8 18V16.8H69.6V36H62.4V34.8C62.4 34.08 61.92 33.6001 61.2 33.6001C60.48 33.6001 60 34.08 60 34.8V39.6C60 40.32 60.48 40.8 61.2 40.8C61.92 40.8 62.4 40.32 62.4 39.6V38.4H69.6V57.6H43.2V38.4H50.4V39.6C50.4 40.32 50.88 40.8 51.6 40.8C52.32 40.8 52.7999 40.32 52.7999 39.6V34.8C52.7999 34.08 52.32 33.6001 51.6 33.6001C50.88 33.6001 50.4 34.08 50.4 34.8V36H42C41.28 36 40.8001 36.48 40.8001 37.2V57.6H14.4V55.1548C22.4754 54.5456 28.8 47.8361 28.8 39.6C28.8 38.88 28.32 38.4 27.6 38.4H14.4V31.2H34.8C35.52 31.2 36 30.7201 36 30.0001V21.6H37.2C37.92 21.6 38.3999 21.12 38.3999 20.4C38.3999 19.68 37.92 19.2001 37.2 19.2001H32.4C31.68 19.2001 31.2 19.68 31.2 20.4C31.2 21.12 31.68 21.6 32.4 21.6H33.6V28.8H14.4V2.40005Z" fill="#DC3545"/>
<path d="M9.24026 59.64C9.72022 59.1601 9.72022 58.4401 9.24026 57.96C8.76031 57.48 8.04031 57.48 7.56022 57.96L6.00026 59.52V4.07995L7.56022 5.64005C7.80026 5.88009 8.04017 6.00005 8.40017 6.00005C8.76017 6.00005 9.00022 5.88009 9.24012 5.64005C9.72008 5.16009 9.72008 4.44009 9.24012 3.96L5.84558 0.565312C5.6494 0.212484 5.27815 0 4.80017 0C4.32219 0 3.95108 0.212484 3.75476 0.565312L0.360217 3.96C-0.119737 4.43995 -0.119737 5.15995 0.360217 5.64005C0.84017 6.12014 1.56017 6.12 2.04026 5.64005L3.60022 4.07995V59.52L2.04026 57.96C1.56031 57.48 0.84031 57.48 0.360217 57.96C-0.119737 58.44 -0.119737 59.16 0.360217 59.64L3.7549 63.0347C3.95108 63.3876 4.32219 63.6 4.80031 63.6C5.27829 63.6 5.6494 63.3876 5.84558 63.0347L9.24026 59.64Z" fill="#DC3545"/>
<path d="M72 67.201C72 67.2003 72 67.1996 72 67.1988C71.9997 66.7214 71.7874 66.3507 71.4347 66.1545L68.04 62.7598C67.56 62.2799 66.8401 62.2799 66.36 62.7598C65.88 63.2398 65.88 63.9598 66.36 64.4399L67.9199 65.9998H12.48L14.04 64.44C14.52 63.96 14.52 63.24 14.04 62.7599C13.56 62.28 12.84 62.28 12.36 62.7599L8.96527 66.1546C8.61244 66.3508 8.39996 66.7219 8.39996 67.2C8.39996 67.6782 8.61244 68.0491 8.96527 68.2454L12.36 71.6401C12.6 71.8802 12.8399 72.0001 13.1999 72.0001C13.5599 72.0001 13.8 71.8802 14.0399 71.6401C14.5198 71.1602 14.5198 70.4402 14.0399 69.9601L12.48 68.4H67.92L66.3601 69.9599C65.8801 70.4399 65.8801 71.1599 66.3601 71.64C66.6001 71.88 66.84 72 67.2 72C67.56 72 67.8001 71.88 68.04 71.64L71.4347 68.2453C71.7872 68.0493 71.9996 67.6786 72 67.201Z" fill="#DC3545"/>
</g>
<defs>
<clipPath id="clip0_38_55">
<rect width="72" height="72" fill="white"/>
</clipPath>
</defs>
</svg>
