<svg width="72" height="72" viewBox="0 0 72 72" fill="none" xmlns="http://www.w3.org/2000/svg">
<g clip-path="url(#clip0_38_98)">
<path d="M44.7196 29.7901C42.3551 29.7901 40.0586 30.2487 37.8941 31.1528C37.1775 31.4521 36.8393 32.2758 37.1385 32.9924C37.4379 33.7092 38.2615 34.047 38.9782 33.748C40.7976 32.9879 42.7292 32.6026 44.7196 32.6026C52.939 32.6026 59.6258 39.2896 59.6258 47.5089C59.6258 55.7281 52.939 62.4151 44.7196 62.4151C36.5002 62.4151 29.8133 55.7281 29.8133 47.5089C29.8133 45.5215 30.1975 43.5924 30.9554 41.7756C31.2543 41.0587 30.9156 40.2353 30.1988 39.9363C29.4825 39.6378 28.6585 39.9761 28.3596 40.6929C27.458 42.8547 27.0008 45.1479 27.0008 47.5089C27.0008 57.2791 34.9494 65.2276 44.7196 65.2276C54.4898 65.2276 62.4383 57.2791 62.4383 47.5089C62.4383 37.7386 54.4898 29.7901 44.7196 29.7901Z" fill="#DC3545"/>
<path d="M44.7196 59.0401C51.078 59.0401 56.2508 53.8672 56.2508 47.5089C56.2508 41.1505 51.078 35.9776 44.7196 35.9776C38.3612 35.9776 33.1883 41.1505 33.1883 47.5089C33.1883 53.8672 38.3614 59.0401 44.7196 59.0401ZM44.7196 38.7901C49.5271 38.7901 53.4383 42.7014 53.4383 47.5089C53.4383 52.3163 49.5271 56.2276 44.7196 56.2276C39.912 56.2276 36.0008 52.3164 36.0008 47.5089C36.0008 42.7013 39.912 38.7901 44.7196 38.7901Z" fill="#DC3545"/>
<path d="M64.8681 23.0401H60.5903L55.6803 14.731C55.4273 14.3028 54.9669 14.0401 54.4697 14.0401H34.9696C34.4723 14.0401 34.012 14.3028 33.759 14.731L28.8491 23.0401H20.8125V21.3526C20.8125 18.5611 18.5415 16.2901 15.75 16.2901C12.9585 16.2901 10.6875 18.5611 10.6875 21.3526V23.0401H7.13194C3.19936 23.0401 0 26.2395 0 30.1722V64.8455C0 68.7782 3.19936 71.9776 7.13194 71.9776H64.8679C68.8005 71.9776 71.9999 68.7782 71.9999 64.8455V30.1722C72 26.2395 68.8005 23.0401 64.8681 23.0401ZM35.772 16.8526H53.6671L57.3234 23.0401H32.1158L35.772 16.8526ZM13.5 21.3526C13.5 20.112 14.5094 19.1026 15.75 19.1026C16.9906 19.1026 18 20.112 18 21.3526V23.0401H13.5V21.3526ZM69.1875 64.8455C69.1875 67.2274 67.2498 69.1651 64.8681 69.1651H7.13194C4.75017 69.1651 2.8125 67.2273 2.8125 64.8455V30.1722C2.8125 27.7903 4.75017 25.8526 7.13194 25.8526H64.8679C67.2497 25.8526 69.1874 27.7903 69.1874 30.1722V64.8455H69.1875Z" fill="#DC3545"/>
<path d="M44.7196 44.7667C46.2317 44.7667 47.4618 45.9969 47.4618 47.5089C47.4618 48.2855 48.0914 48.9151 48.868 48.9151C49.6447 48.9151 50.2743 48.2855 50.2743 47.5089C50.2743 44.446 47.7824 41.9542 44.7196 41.9542C43.9429 41.9542 43.3133 42.5839 43.3133 43.3604C43.3133 44.1369 43.9429 44.7667 44.7196 44.7667Z" fill="#DC3545"/>
<path d="M44.7196 10.3404C45.4963 10.3404 46.1258 9.7107 46.1258 8.93417V1.42859C46.1258 0.652058 45.4963 0.0223389 44.7196 0.0223389C43.9429 0.0223389 43.3133 0.651917 43.3133 1.42859V8.93417C43.3133 9.71084 43.9429 10.3404 44.7196 10.3404Z" fill="#DC3545"/>
<path d="M51.4112 10.3404C51.7711 10.3404 52.1311 10.203 52.4056 9.92851L57.5653 4.76883C58.1144 4.21969 58.1144 3.32926 57.5651 2.77998C57.016 2.23098 56.1255 2.23098 55.5764 2.77998L50.4169 7.93979C49.8677 8.48893 49.8677 9.37937 50.4169 9.92865C50.6915 10.2031 51.0514 10.3404 51.4112 10.3404Z" fill="#DC3545"/>
<path d="M37.0336 9.92864C37.3082 10.2031 37.6681 10.3405 38.028 10.3405C38.3878 10.3405 38.7478 10.2031 39.0223 9.92864C39.5715 9.3795 39.5716 8.48906 39.0225 7.93978L33.8628 2.78011C33.3136 2.23125 32.4232 2.23111 31.8741 2.78011C31.3249 3.32925 31.3248 4.21968 31.8739 4.76896L37.0336 9.92864Z" fill="#DC3545"/>
<path d="M19.4062 34.5714H12.0938C11.3171 34.5714 10.6875 35.2011 10.6875 35.9776C10.6875 36.7543 11.3171 37.3839 12.0938 37.3839H19.4062C20.1829 37.3839 20.8125 36.7543 20.8125 35.9776C20.8125 35.2009 20.1829 34.5714 19.4062 34.5714Z" fill="#DC3545"/>
<path d="M33.1819 37.3837C33.5517 37.3837 33.9145 37.2333 34.1761 36.9717C34.4377 36.7101 34.5881 36.3486 34.5881 35.9775C34.5881 35.6076 34.4377 35.2448 34.1761 34.9833C33.9145 34.7218 33.5517 34.5712 33.1819 34.5712C32.812 34.5712 32.4492 34.7217 32.1877 34.9833C31.9247 35.2448 31.7756 35.6078 31.7756 35.9775C31.7756 36.3473 31.9247 36.7101 32.1877 36.9717C32.4492 37.2333 32.8106 37.3837 33.1819 37.3837Z" fill="#DC3545"/>
</g>
<defs>
<clipPath id="clip0_38_98">
<rect width="72" height="72" fill="white"/>
</clipPath>
</defs>
</svg>
