<svg width="72" height="72" viewBox="0 0 72 72" fill="none" xmlns="http://www.w3.org/2000/svg">
<g clip-path="url(#clip0_38_2)">
<path d="M43.1714 23.7902H52.2915C52.5128 23.7902 52.7257 23.706 52.8873 23.5548L56.0261 20.6252C56.3781 20.2965 56.3968 19.7447 56.0683 19.3929C56.0548 19.3783 56.0407 19.3644 56.0261 19.3507L52.8873 16.4197C52.7256 16.269 52.5125 16.1853 52.2915 16.1857H43.1714C42.6898 16.1857 42.2995 16.5761 42.2995 17.0576V22.9183C42.2995 23.3997 42.6898 23.7902 43.1714 23.7902ZM44.0433 17.9295H51.9485L54.153 19.9872L51.9485 22.0464H44.0433V17.9295Z" fill="#1D662D"/>
<path d="M43.1714 32.1401H55.4318C55.6525 32.1397 55.865 32.0555 56.0261 31.9047L59.1664 28.9751C59.5188 28.6468 59.5383 28.0952 59.21 27.7428C59.1961 27.7277 59.1814 27.7132 59.1664 27.6992L56.0276 24.7696C55.8661 24.6192 55.6538 24.5356 55.4332 24.5356H43.1714C42.6898 24.5356 42.2995 24.926 42.2995 25.4075V31.2682C42.2995 31.7496 42.6898 32.1401 43.1714 32.1401ZM44.0433 26.2795H55.0874L57.2933 28.3371L55.0874 30.3963H44.0433V26.2795Z" fill="#5ABA6F"/>
<path d="M43.1714 40.4886H58.575C58.7963 40.4886 59.0092 40.4045 59.1708 40.2532L62.3024 37.3236C62.6548 36.9895 62.6695 36.4331 62.3354 36.0807C62.3246 36.0694 62.3137 36.0585 62.3024 36.0477L59.1635 33.1181C59.002 32.9668 58.7891 32.8827 58.5677 32.8827H43.1641C42.6825 32.8827 42.2922 33.273 42.2922 33.7546V39.6167C42.2922 40.0983 42.6825 40.4886 43.1641 40.4886H43.1714ZM44.0433 34.6265H58.2335L60.438 36.6856L58.2335 38.7448H44.0433V34.6265Z" fill="#EBEE47"/>
<path d="M43.1714 48.8356H61.7109C61.9315 48.8356 62.1438 48.752 62.3053 48.6016L65.4441 45.6706C65.7961 45.3419 65.8149 44.7901 65.4863 44.4383C65.4728 44.4238 65.4587 44.4098 65.4441 44.3961L62.3024 41.4666C62.1412 41.3157 61.9288 41.2316 61.708 41.2311H43.1714C42.6898 41.2311 42.2995 41.6215 42.2995 42.103V47.9637C42.2995 48.4451 42.6898 48.8356 43.1714 48.8356ZM44.0433 42.9749H61.3665L63.5725 45.0341L61.3665 47.0918H44.0433V42.9749Z" fill="#ECC84C"/>
<path d="M43.1714 57.1841H64.8498C65.0704 57.1841 65.2827 57.1005 65.4441 56.9501L68.5844 54.0162C68.9364 53.6875 68.9552 53.1357 68.6266 52.7839C68.6131 52.7693 68.599 52.7554 68.5844 52.7417L65.4441 49.8121C65.283 49.6613 65.0705 49.5772 64.8498 49.5767H43.1714C42.6898 49.5767 42.2995 49.967 42.2995 50.4486V56.3122C42.2995 56.7936 42.6898 57.1841 43.1714 57.1841ZM44.0433 51.3234H64.5069L66.7113 53.3826L64.5069 55.4403H44.0433V51.3234Z" fill="#F3AF49"/>
<path d="M68.5844 58.1621C68.4227 58.0114 68.2097 57.9277 67.9887 57.9281H43.1714C42.6898 57.9281 42.2995 58.3184 42.2995 58.8V64.6606C42.2995 65.1422 42.6898 65.5326 43.1714 65.5326H67.9887C68.2097 65.533 68.4227 65.4493 68.5844 65.2986L71.7233 62.3675C72.0753 62.0388 72.094 61.4871 71.7654 61.1353C71.7519 61.1207 71.7378 61.1068 71.7233 61.0931L68.5844 58.1621ZM67.6457 63.7887H44.0433V59.6719H67.6457L69.8589 61.7311L67.6457 63.7887Z" fill="#F96977"/>
<path d="M3.0377 48.4941C3.26817 48.4939 3.4892 48.4024 3.65239 48.2398L6.24485 45.6546V64.4557C6.24485 64.9373 6.63517 65.3276 7.11675 65.3276H39.553C40.6981 65.2913 40.7155 63.626 39.553 63.5838H37.4168V47.673C37.4144 46.0947 36.1351 44.8162 34.557 44.8146H26.3219C24.7436 44.8162 23.4645 46.0949 23.462 47.673V63.5838H7.98865V43.9093L25.9528 25.9888L38.9368 38.9409C39.2779 39.2813 39.8303 39.2805 40.1706 38.9395C40.5109 38.5984 40.5102 38.0461 40.1691 37.7057L26.5689 24.1404C26.2287 23.8014 25.6783 23.8014 25.3381 24.1404L2.72236 46.7067C1.78361 46.5018 1.41451 45.2085 2.14109 44.54L25.9731 20.4261L38.9528 33.5627C39.7811 34.3547 40.9873 33.1878 40.1938 32.3377L26.5733 18.5733C26.2345 18.2311 25.6825 18.228 25.3402 18.5667C25.3381 18.5689 25.3359 18.5711 25.3337 18.5733L13.1125 30.9412L12.9265 27.4362C12.9018 26.9729 12.5186 26.61 12.0546 26.6108H7.37251C6.89936 26.6106 6.51238 26.9879 6.50061 27.4609L6.24049 37.3846C6.23642 37.5283 6.26839 37.6707 6.33349 37.7987L0.891365 43.3106C-1.02392 45.1838 0.358051 48.5202 3.0377 48.4941ZM25.2058 47.6788C25.2074 47.0634 25.7064 46.565 26.3219 46.5643H34.557C35.1724 46.565 35.6714 47.0634 35.673 47.6788V63.5838H25.2102L25.2058 47.6788ZM8.22552 28.3546H11.2292L11.4414 32.4017C11.4457 32.4675 11.4569 32.5327 11.4748 32.5964L8.02353 36.0927L8.22552 28.3546Z" fill="#DC3545"/>
<path d="M12.3133 42.7032C11.8317 42.7032 11.4414 43.0935 11.4414 43.5751V54.378C11.4414 54.8595 11.8317 55.2499 12.3133 55.2499H20.2098C20.6914 55.2499 21.0817 54.8595 21.0817 54.378V43.5751C21.0817 43.0935 20.6914 42.7032 20.2098 42.7032H12.3133ZM19.3379 53.5061H13.1852V44.447H19.3379V53.5061Z" fill="#DC3545"/>
<path d="M27.6646 54.3765C27.0737 54.3765 26.5945 54.8552 26.5936 55.4461C26.643 56.8629 28.6847 56.8629 28.7341 55.4461C28.7332 54.8556 28.2549 54.3773 27.6646 54.3765Z" fill="#DC3545"/>
<path d="M8.49873 19.6501C8.85432 19.326 8.88033 18.7753 8.55685 18.4192C7.55998 17.3236 6.861 15.3225 9.19334 12.0049C11.0461 9.36889 14.1007 8.53186 16.3691 8.28918C15.0947 9.45172 13.922 11.3234 14.525 14.1019C15.2705 17.3323 13.5877 18.8683 10.8921 19.204C11.3369 17.2356 12.0436 15.3359 12.9934 13.5555C13.5078 12.5281 12.0357 11.7288 11.4574 12.7301C9.6104 16.1625 8.6019 20.134 8.53505 24.2261C8.52706 24.7077 8.91084 25.1046 9.39243 25.1126C9.87401 25.1205 10.2709 24.7368 10.2789 24.2552C10.2976 23.1604 10.3894 22.0682 10.5535 20.9855C11.6812 20.9216 13.7679 20.5888 15.1601 19.0862C16.3589 17.7915 16.7193 15.9924 16.2311 13.74C15.8983 12.204 16.1061 10.065 18.9921 8.59144C20.0093 8.07266 19.6649 6.5105 18.5169 6.47563C16.2935 6.40587 10.7947 6.70523 7.76342 11.0081C4.61149 15.4882 6.09954 18.3103 7.26789 19.5934C7.59224 19.9486 8.14299 19.9738 8.49873 19.6501Z" fill="#DC3545"/>
</g>
<defs>
<clipPath id="clip0_38_2">
<rect width="72" height="72" fill="white"/>
</clipPath>
</defs>
</svg>
