<svg width="403" height="113" viewBox="0 0 403 113" fill="none" xmlns="http://www.w3.org/2000/svg">
<path d="M4.82812 89V20.75H45.6094V31.1094H17.1562V49.5312H41.2969V58.8594H17.1562V78.9688H46.2188V89H4.82812ZM51.8906 89V20.75H76.9219C83.7031 20.75 88.8281 22.8125 92.2969 26.9375C95.7969 31.0625 97.5469 36.4219 97.5469 43.0156C97.5469 49.6094 95.8281 54.9688 92.3906 59.0938C88.9531 63.2188 83.7344 65.2812 76.7344 65.2812H64.6875V89H51.8906ZM64.6875 56.2344H74.1562C78.0938 56.2344 80.8281 54.9844 82.3594 52.4844C83.9219 49.9531 84.7031 46.875 84.7031 43.25C84.7031 39.6562 83.9219 36.6094 82.3594 34.1094C80.7969 31.6094 78.0625 30.3438 74.1562 30.3125H64.6875V56.2344ZM102.797 56.7031V53.0469C102.797 41.2969 105.266 32.8281 110.203 27.6406C115.141 22.4219 121.516 19.8125 129.328 19.8125C136.984 19.8125 142.891 21.7188 147.047 25.5312C151.203 29.3437 153.281 34.9531 153.281 42.3594V45.5938H141.047V41.375C141.047 37.3438 140.078 34.2812 138.141 32.1875C136.234 30.0625 133.375 29 129.562 29C125.344 29 122.078 30.6875 119.766 34.0625C117.484 37.4375 116.344 42.7031 116.344 49.8594V59.8906C116.344 67.0469 117.531 72.3281 119.906 75.7344C122.281 79.1406 125.562 80.8438 129.75 80.8438C133.469 80.8438 136.281 79.7812 138.188 77.6562C140.094 75.5312 141.047 72.2031 141.047 67.6719V64.2969H153.281V68.2344C153.281 74.9844 151.219 80.2812 147.094 84.125C142.969 87.9688 137.031 89.8906 129.281 89.8906C121 89.8906 114.516 87.25 109.828 81.9688C105.141 76.6562 102.797 68.2344 102.797 56.7031Z" fill="#DC3545"/>
<path d="M172.807 89L179.095 53.2031H182.142L181.178 58.9507H181.216C182.708 56.9705 184.611 55.389 186.925 54.2061C189.265 53.0231 191.824 52.4316 194.602 52.4316C198.125 52.4316 200.748 53.3831 202.471 55.2861C204.194 57.1891 204.669 60.3265 203.898 64.6982L199.616 89H196.415L200.658 64.9683C201.249 61.5223 200.863 59.0664 199.5 57.6006C198.163 56.109 196.029 55.3633 193.097 55.3633C190.526 55.3633 188.16 56.0448 186 57.4077C183.839 58.745 182.065 60.4294 180.676 62.4609L176.009 89H172.807ZM209.337 71.5645L209.53 70.5615C210.481 65.084 212.629 60.6865 215.972 57.3691C219.34 54.0518 223.352 52.3931 228.007 52.3931C232.636 52.3931 235.876 53.8846 237.728 56.8677C239.579 59.8507 240.042 63.8882 239.116 68.98L238.846 70.5615H211.343L211.844 67.8228H236.107L236.223 67.2827C236.763 64.1453 236.403 61.3551 235.143 58.9121C233.883 56.4691 231.337 55.2476 227.505 55.2476C223.597 55.2476 220.356 56.6491 217.785 59.4521C215.213 62.2295 213.529 65.894 212.731 70.4458L212.5 71.6802C211.703 76.2319 212.127 79.9222 213.773 82.751C215.444 85.554 218.325 86.9556 222.414 86.9556C225.088 86.9556 227.441 86.4284 229.473 85.374C231.53 84.2939 233.201 82.9567 234.487 81.3623L236.262 83.3682C235.002 84.9883 233.15 86.467 230.707 87.8042C228.264 89.1414 225.332 89.8101 221.912 89.8101C216.897 89.8101 213.297 88.1642 211.111 84.8726C208.951 81.5552 208.36 77.1191 209.337 71.5645ZM241.508 79.0093C242.125 75.5633 243.912 72.8374 246.87 70.8315C249.827 68.8 253.582 67.7842 258.133 67.7842H267.815L268.51 63.8496C268.998 60.9437 268.625 58.7964 267.391 57.4077C266.182 55.9933 263.958 55.2861 260.718 55.2861C257.478 55.2861 254.893 55.929 252.964 57.2148C251.036 58.4749 249.891 60.1722 249.531 62.3066L249.3 63.5024H246.06L246.368 61.998C246.831 59.3236 248.4 57.0605 251.074 55.209C253.749 53.3317 257.143 52.3931 261.258 52.3931C265.27 52.3931 268.188 53.2803 270.014 55.0547C271.866 56.8034 272.431 59.6836 271.711 63.6953L268.896 79.7422C268.587 81.4909 268.42 83.1367 268.394 84.6797C268.394 86.1969 268.535 87.4827 268.818 88.5371L268.741 89H265.732C265.475 88.2542 265.308 87.2899 265.231 86.1069C265.154 84.924 265.18 83.7282 265.308 82.5195C264.177 84.4225 262.389 86.0684 259.946 87.457C257.529 88.8457 254.649 89.54 251.306 89.54C247.705 89.54 245.018 88.64 243.244 86.8398C241.495 85.0397 240.916 82.4295 241.508 79.0093ZM244.748 78.9321C244.311 81.4523 244.735 83.381 246.021 84.7183C247.333 86.0298 249.441 86.6855 252.347 86.6855C255.562 86.6855 258.545 85.7212 261.296 83.7925C264.074 81.8638 265.694 79.6007 266.157 77.0034L267.353 70.4458H258.095C254.134 70.4458 251.036 71.2044 248.798 72.7217C246.561 74.2132 245.211 76.2834 244.748 78.9321ZM276.572 89L282.859 53.2031H285.907L284.942 58.7192H285.02C286.331 56.9705 287.977 55.479 289.957 54.2446C291.963 53.0103 294.149 52.3931 296.515 52.3931C297.106 52.3931 297.723 52.4445 298.366 52.5474C299.009 52.6502 299.446 52.766 299.678 52.8945L299.138 55.9033C298.726 55.7747 298.212 55.6719 297.595 55.5947C297.003 55.4919 296.335 55.4404 295.589 55.4404C293.557 55.4404 291.526 56.0962 289.494 57.4077C287.488 58.6935 285.817 60.3651 284.479 62.4224L279.773 89H276.572ZM311.983 89L318.271 53.2031H321.318L320.315 58.9893H320.354C321.948 56.9577 323.799 55.3633 325.908 54.2061C328.043 53.0231 330.409 52.4316 333.006 52.4316C335.655 52.4316 337.75 53.0231 339.293 54.2061C340.862 55.389 341.736 57.0605 341.917 59.2207H341.955C343.369 57.2148 345.221 55.5819 347.51 54.3218C349.799 53.0617 352.319 52.4316 355.07 52.4316C358.336 52.4316 360.792 53.396 362.438 55.3247C364.11 57.2534 364.572 60.3779 363.827 64.6982L359.545 89H356.305L360.625 64.6982C361.216 61.3037 360.856 58.8993 359.545 57.4849C358.259 56.0705 356.279 55.3633 353.604 55.3633C351.136 55.3633 348.898 56.0576 346.893 57.4463C344.912 58.835 343.292 60.5322 342.032 62.5381L337.365 89H334.163L338.522 64.1196C339.088 60.9823 338.715 58.745 337.403 57.4077C336.118 56.0448 334.163 55.3633 331.54 55.3633C329.097 55.3633 326.898 56.0319 324.944 57.3691C322.989 58.6807 321.292 60.4036 319.852 62.5381L315.185 89H311.983ZM369.343 71.5645L369.536 70.5615C370.487 65.084 372.634 60.6865 375.978 57.3691C379.346 54.0518 383.358 52.3931 388.013 52.3931C392.642 52.3931 395.882 53.8846 397.733 56.8677C399.585 59.8507 400.048 63.8882 399.122 68.98L398.852 70.5615H371.349L371.85 67.8228H396.113L396.229 67.2827C396.769 64.1453 396.409 61.3551 395.149 58.9121C393.889 56.4691 391.343 55.2476 387.511 55.2476C383.602 55.2476 380.362 56.6491 377.791 59.4521C375.219 62.2295 373.535 65.894 372.737 70.4458L372.506 71.6802C371.709 76.2319 372.133 79.9222 373.779 82.751C375.45 85.554 378.331 86.9556 382.419 86.9556C385.094 86.9556 387.447 86.4284 389.479 85.374C391.536 84.2939 393.207 82.9567 394.493 81.3623L396.268 83.3682C395.007 84.9883 393.156 86.467 390.713 87.8042C388.27 89.1414 385.338 89.8101 381.918 89.8101C376.903 89.8101 373.303 88.1642 371.117 84.8726C368.957 81.5552 368.366 77.1191 369.343 71.5645Z" fill="black"/>
<line x1="164.75" y1="22" x2="164.75" y2="89" stroke="black" stroke-width="1.5"/>
</svg>
